<?xml version="1.0" encoding="UTF-8" standalone="no"?>
<svg width="26px" height="42px" viewBox="0 0 26 42" version="1.1" xmlns="http://www.w3.org/2000/svg" xmlns:xlink="http://www.w3.org/1999/xlink" xmlns:sketch="http://www.bohemiancoding.com/sketch/ns">
    <!-- Generator: Sketch 3.4.2 (15855) - http://www.bohemiancoding.com/sketch -->
    <title>Imported Layers 5</title>
    <desc>Created with Sketch.</desc>
    <defs></defs>
    <g id="Page-1" stroke="none" stroke-width="1" fill="none" fill-rule="evenodd" sketch:type="MSPage">
        <g id="Start-List-Registered-Or-Unregistered" sketch:type="MSArtboardGroup" transform="translate(-35.000000, -80.000000)" fill="#FBFBFB">
            <g id="Header" sketch:type="MSLayerGroup">
                <path d="M52.2575959,80.6576185 C51.7155634,80.4697275 51.1735309,80.3194147 50.6128077,80.2254692 C50.0147028,80.1127346 49.3605257,80.0375782 48.6876578,80 L47.8839544,80 C47.2110865,80.0375782 46.5569094,80.1127346 45.9588045,80.2254692 C45.3793905,80.3194147 44.837358,80.4697275 44.3140163,80.6576185 C41.2487291,81.6910191 38.9310729,83.6450856 37.4731924,86.1816143 C36.4825813,87.9290007 35.8097134,90.1085364 35.9779304,92.7765888 C36.0340027,93.9978803 36.3704367,95.1064373 36.7442522,96.1022597 C37.1367585,97.0792929 37.5853371,97.9623807 38.1086788,98.8078902 C40.1459733,102.133561 42.8935174,105.08345 44.4448517,108.878848 C45.2485551,110.795337 45.9401138,112.805771 46.5382186,114.947728 C47.1176326,117.070897 47.6596651,119.3068 47.8839544,121.768172 L48.6876578,121.768172 C48.9119471,119.3068 49.4352888,117.070897 50.0147028,114.947728 C50.6128077,112.805771 51.3230571,110.795337 52.1080697,108.878848 C53.6780949,105.08345 56.4256389,102.133561 58.4442426,98.8078902 C58.9862751,97.9623807 59.4348537,97.0792929 59.82736,96.1022597 C60.2011755,95.1064373 60.5189187,93.9978803 60.5936818,92.7765888 C60.743208,90.1085364 60.0890309,87.9290007 59.079729,86.1816143 C57.6218485,83.6450856 55.3228831,81.6910191 52.2575959,80.6576185 Z M48.3493882,96 C50.6045509,96 52.4327215,94.209139 52.4327215,92 C52.4327215,89.790861 50.6045509,88 48.3493882,88 C46.0942255,88 44.2660549,89.790861 44.2660549,92 C44.2660549,94.209139 46.0942255,96 48.3493882,96 Z" id="Imported-Layers-5" sketch:type="MSShapeGroup"></path>
            </g>
        </g>
    </g>
</svg>