<?xml version="1.0" encoding="UTF-8" standalone="no"?>
<svg width="8px" height="40px" viewBox="0 0 8 40" version="1.1" xmlns="http://www.w3.org/2000/svg" xmlns:xlink="http://www.w3.org/1999/xlink" xmlns:sketch="http://www.bohemiancoding.com/sketch/ns">
    <!-- Generator: Sketch 3.4.2 (15855) - http://www.bohemiancoding.com/sketch -->
    <title>Oval 1</title>
    <desc>Created with Sketch.</desc>
    <defs></defs>
    <g id="Page-1" stroke="none" stroke-width="1" fill="none" fill-rule="evenodd" sketch:type="MSPage">
        <g id="Profile" sketch:type="MSArtboardGroup" transform="translate(-680.000000, -84.000000)" fill="#FBFBFB">
            <g id="Header" sketch:type="MSLayerGroup">
                <path d="M683.993639,91.9739916 C686.202778,91.9739916 687.993639,90.1831306 687.993639,87.9739916 C687.993639,85.7648526 686.202778,83.9739916 683.993639,83.9739916 C681.7845,83.9739916 679.993639,85.7648526 679.993639,87.9739916 C679.993639,90.1831306 681.7845,91.9739916 683.993639,91.9739916 Z M683.993639,107.973992 C686.202778,107.973992 687.993639,106.183131 687.993639,103.973992 C687.993639,101.764853 686.202778,99.9739916 683.993639,99.9739916 C681.7845,99.9739916 679.993639,101.764853 679.993639,103.973992 C679.993639,106.183131 681.7845,107.973992 683.993639,107.973992 Z M683.993639,123.973992 C686.202778,123.973992 687.993639,122.183131 687.993639,119.973992 C687.993639,117.764853 686.202778,115.973992 683.993639,115.973992 C681.7845,115.973992 679.993639,117.764853 679.993639,119.973992 C679.993639,122.183131 681.7845,123.973992 683.993639,123.973992 Z" id="Oval-1" sketch:type="MSShapeGroup"></path>
            </g>
        </g>
    </g>
</svg>