<?xml version="1.0" encoding="UTF-8" standalone="no"?>
<svg width="65px" height="42px" viewBox="0 0 65 42" version="1.1" xmlns="http://www.w3.org/2000/svg" xmlns:xlink="http://www.w3.org/1999/xlink" xmlns:sketch="http://www.bohemiancoding.com/sketch/ns">
    <!-- Generator: Sketch 3.4.2 (15855) - http://www.bohemiancoding.com/sketch -->
    <title>Triangle 1</title>
    <desc>Created with Sketch.</desc>
    <defs></defs>
    <g id="Page-1" stroke="none" stroke-width="1" fill="none" fill-rule="evenodd" sketch:type="MSPage">
        <g id="Followers" sketch:type="MSArtboardGroup" transform="translate(-592.000000, -232.000000)" fill="#3CADD6">
            <g id="Dashboard" sketch:type="MSLayerGroup" transform="translate(0.000000, 51.000000)">
                <g id="Messages" transform="translate(0.000000, 110.000000)" sketch:type="MSShapeGroup">
                    <g id="Group" transform="translate(0.000000, 48.000000)">
                        <path d="M631.948938,23.5078236 C630.39865,23.5078236 631.740245,23.9857752 630.905475,24.1052632 C630.070705,24.2247511 632.008564,23.9857752 629.504254,24.4637269 C626.999944,24.9715505 626.493119,28.197724 626.373867,29.3926031 C626.254614,30.5874822 626.2248,30.9459459 626.284427,32.7382646 C626.522933,33.8136558 625.330404,33.8136558 625.330404,33.8136558 C623.80993,33.7240398 623.571424,38.4139403 623.571424,38.4139403 C623.780117,39.5789474 623.481985,40.1465149 625.717976,41.0426743 C626.761438,44.059744 629.474441,45.5832148 629.474441,45.5832148 C629.474441,45.5832148 629.593694,47.5248933 629.65332,48.8990043 C629.414814,48.8093883 629.235935,52.4537696 622.349083,53.4694168 C615.432417,54.485064 614.120636,56.7254623 612.808854,57.9800853 C611.497073,59.2347084 611.735578,65 611.735578,65 L656.097641,65 C656.097641,65 655.799509,59.2347084 654.517541,57.9800853 C653.205759,56.7254623 651.774725,54.485064 644.887873,53.4694168 C637.971207,52.4537696 638.448218,48.8990043 638.388592,48.6899004 C638.418405,48.1522048 638.656911,45.8221906 638.656911,45.8221906 C638.656911,45.8221906 640.892902,43.970128 641.936364,40.9530583 C643.605904,39.9075391 644.231982,39.7581792 644.530114,38.5334282 C644.530114,38.5334282 645.275444,33.9331437 643.486651,33.9331437 C643.486651,33.9331437 641.42954,34.0526316 641.668045,32.9772404 C641.906551,31.9018492 641.817111,31.5433855 641.697859,30.3485064 C641.578606,29.1536273 642.294123,25.7183499 639.789813,25.2403983 C638.09046,24.9416785 638.627098,25.4196302 637.792328,25.3001422 C636.957558,25.1806543 635.973722,23 634.423434,23 L631.948938,23.5078236 L631.948938,23.5078236 Z M608.204,40.7864833 L608.204,33.8 L624.918618,45.4560432 L608.204,57.1120864 L608.204,49.7943517 C604.711623,49.5154368 595.76931,49.6072142 592.629471,57.3176101 C591.567894,59.9244898 591.744897,54.7729097 593.96565,49.2564116 C596.103912,43.9448254 600.992068,40.6765362 608.204,40.7864833 Z" id="Triangle-1"></path>
                    </g>
                </g>
            </g>
        </g>
    </g>
</svg>