<?xml version="1.0" encoding="UTF-8" standalone="no"?>
<svg width="38px" height="38px" viewBox="0 0 38 38" version="1.1" xmlns="http://www.w3.org/2000/svg" xmlns:xlink="http://www.w3.org/1999/xlink" xmlns:sketch="http://www.bohemiancoding.com/sketch/ns">
    <!-- Generator: Sketch 3.4.2 (15855) - http://www.bohemiancoding.com/sketch -->
    <title>Fill 53</title>
    <desc>Created with Sketch.</desc>
    <defs></defs>
    <g id="Page-1" stroke="none" stroke-width="1" fill="none" fill-rule="evenodd" sketch:type="MSPage">
        <g id="Start-Map-Registered-Or-Unregistered" sketch:type="MSArtboardGroup" transform="translate(-647.000000, -87.000000)" fill="#FBFBFB">
            <g id="Header" sketch:type="MSLayerGroup" transform="translate(0.000000, 50.000000)">
                <path d="M652.989295,58.151861 C648.81922,53.9638986 648.81922,47.1783391 652.989295,42.9903767 C657.173501,38.8024142 663.957601,38.8024142 668.143573,42.9903767 C672.327778,47.1783391 672.327778,53.9638986 668.143573,58.151861 C663.957601,62.3398235 657.173501,62.3398235 652.989295,58.151861 L652.989295,58.151861 Z M684.550109,69.0547 L677.38097,61.8980553 C676.74336,61.2619091 675.614737,61.332592 674.46492,61.915726 L671.338688,58.8056779 C675.418686,53.4691182 675.031881,45.8353638 670.155312,40.9759137 C664.856614,35.6746954 656.272722,35.6746954 650.974024,40.9759137 C645.675325,46.277132 645.675325,54.8651057 650.974024,60.166324 C655.848826,65.0257741 663.480718,65.4145301 668.795313,61.3502627 L671.921545,64.4603108 C671.321026,65.6089081 671.269805,66.7575054 671.88622,67.3759809 L679.057125,74.5502963 C679.95967,75.4515034 681.936085,74.956723 683.437383,73.4370405 C684.958109,71.9350286 685.450888,69.9735778 684.550109,69.0547 L684.550109,69.0547 Z" id="Fill-53" sketch:type="MSShapeGroup"></path>
            </g>
        </g>
    </g>
</svg>