<?xml version="1.0" encoding="UTF-8" standalone="no"?>
<svg width="24px" height="24px" viewBox="0 0 24 24" version="1.1" xmlns="http://www.w3.org/2000/svg" xmlns:xlink="http://www.w3.org/1999/xlink" xmlns:sketch="http://www.bohemiancoding.com/sketch/ns">
    <!-- Generator: Sketch 3.4.2 (15855) - http://www.bohemiancoding.com/sketch -->
    <title>Shape</title>
    <desc>Created with Sketch.</desc>
    <defs></defs>
    <g id="Page-1" stroke="none" stroke-width="1" fill="none" fill-rule="evenodd" sketch:type="MSPage">
        <g id="Profile" sketch:type="MSArtboardGroup" transform="translate(-33.000000, -181.000000)" fill="#4990E2">
            <g id="Dashboard" sketch:type="MSLayerGroup" transform="translate(0.000000, 161.000000)">
                <g id="Profile" sketch:type="MSShapeGroup">
                    <path d="M45,44 C38,44 33,39 33,32 C33,25 38,20 45,20 C52,20 57,25 57,32 C57,39 52,44 45,44 L45,44 Z M53,29 L51,28 C51,27 51,27 51,28 L44,34 L41,31 L40,31 L40,31 L39,32 L39,33 L39,33 L42,36 L42,37 L44,38 L53,30 L53,29 L53,29 Z" id="Shape"></path>
                </g>
            </g>
        </g>
    </g>
</svg>