<?xml version="1.0" encoding="UTF-8" standalone="no"?>
<svg width="37px" height="35px" viewBox="0 0 37 35" version="1.1" xmlns="http://www.w3.org/2000/svg" xmlns:xlink="http://www.w3.org/1999/xlink" xmlns:sketch="http://www.bohemiancoding.com/sketch/ns">
    <!-- Generator: Sketch 3.4.2 (15855) - http://www.bohemiancoding.com/sketch -->
    <title>Profile</title>
    <desc>Created with Sketch.</desc>
    <defs></defs>
    <g id="Page-1" stroke="none" stroke-width="1" fill="none" fill-rule="evenodd" sketch:type="MSPage">
        <g id="Edit-Profile" sketch:type="MSArtboardGroup" transform="translate(-47.000000, -324.000000)" fill="#D1D1D1" opacity="0.900000036">
            <g id="Dashboard" sketch:type="MSLayerGroup" transform="translate(47.000000, 203.000000)">
                <path d="M16.8585996,121.423186 C15.5666937,121.423186 16.6846892,121.821479 15.9890476,121.921053 C15.2934059,122.020626 16.9082883,121.821479 14.8213633,122.219772 C12.7344384,122.642959 12.3120845,125.331437 12.2127071,126.327169 C12.1133297,127.322902 12.0884854,127.621622 12.1381741,129.11522 C12.3369288,130.01138 11.343155,130.01138 11.343155,130.01138 C10.0760934,129.9367 9.87733867,133.84495 9.87733867,133.84495 C10.0512491,134.815789 9.80280564,135.288762 11.6661315,136.035562 C12.5356836,138.549787 14.796519,139.819346 14.796519,139.819346 C14.796519,139.819346 14.8958964,141.437411 14.9455851,142.582504 C14.7468303,142.507824 14.5977642,145.544808 8.85872052,146.391181 C3.09483246,147.237553 2.00168128,149.104552 0.908530095,150.150071 C-0.184621089,151.19559 0.0141336719,156 0.0141336719,156 L36.9825192,156 C36.9825192,156 36.7340757,151.19559 35.6657689,150.150071 C34.5726177,149.104552 33.3800891,147.237553 27.6410454,146.391181 C21.8771573,145.544808 22.2746669,142.582504 22.2249782,142.40825 C22.2498225,141.960171 22.4485773,140.018492 22.4485773,140.018492 C22.4485773,140.018492 24.3119032,138.475107 25.1814552,135.960882 C26.5727386,135.089616 27.0944698,134.965149 27.3429133,133.944523 C27.3429133,133.944523 27.9640219,130.110953 26.4733612,130.110953 C26.4733612,130.110953 24.7591014,130.210526 24.9578561,129.314367 C25.1566109,128.418208 25.0820779,128.119488 24.9827005,127.123755 C24.8833231,126.128023 25.4795874,123.265292 23.3926624,122.866999 C21.9765347,122.618065 22.4237329,123.016358 21.7280913,122.916785 C21.0324496,122.817212 20.2125862,121 18.9206803,121 L16.8585996,121.423186 L16.8585996,121.423186 Z" id="Profile" sketch:type="MSShapeGroup"></path>
            </g>
        </g>
    </g>
</svg>