<?xml version="1.0" encoding="UTF-8" standalone="no"?>
<svg width="37px" height="32px" viewBox="0 0 37 32" version="1.1" xmlns="http://www.w3.org/2000/svg" xmlns:xlink="http://www.w3.org/1999/xlink" xmlns:sketch="http://www.bohemiancoding.com/sketch/ns">
    <!-- Generator: Sketch 3.4.2 (15855) - http://www.bohemiancoding.com/sketch -->
    <title>Oval 84</title>
    <desc>Created with Sketch.</desc>
    <defs></defs>
    <g id="Page-1" stroke="none" stroke-width="1" fill="none" fill-rule="evenodd" sketch:type="MSPage">
        <g id="Profile" sketch:type="MSArtboardGroup" transform="translate(-525.000000, -837.000000)" fill="#D0011B">
            <g id="Dashboard" sketch:type="MSLayerGroup" transform="translate(0.000000, 161.000000)">
                <g id="Card" transform="translate(0.000000, 162.000000)" sketch:type="MSShapeGroup">
                    <g id="Oval-84-+-Fill-53-+-message-4" transform="translate(525.000000, 514.000000)">
                        <path d="M4.10328887,16.9488929 C1.90807851,15.2087674 0.5,12.5188209 0.5,9.5 C0.5,4.25329488 4.75329488,0 10,0 C13.7200644,0 16.9407199,2.13822344 18.5,5.25270378 C20.0592801,2.13822344 23.2799356,0 27,0 C32.2467051,0 36.5,4.25329488 36.5,9.5 C36.5,12.5188209 35.0919215,15.2087674 32.8967111,16.9488929 C27.4507582,22.6423892 18.5,32 18.5,32 C18.5,32 9.40462456,22.4911984 4.10328887,16.9488929 Z" id="Oval-84"></path>
                    </g>
                </g>
            </g>
        </g>
    </g>
</svg>