<?xml version="1.0" encoding="UTF-8" standalone="no"?>
<svg width="37px" height="31px" viewBox="0 0 37 31" version="1.1" xmlns="http://www.w3.org/2000/svg" xmlns:xlink="http://www.w3.org/1999/xlink" xmlns:sketch="http://www.bohemiancoding.com/sketch/ns">
    <!-- Generator: Sketch 3.4.2 (15855) - http://www.bohemiancoding.com/sketch -->
    <title>Shape</title>
    <desc>Created with Sketch.</desc>
    <defs></defs>
    <g id="Page-1" stroke="none" stroke-width="1" fill="none" fill-rule="evenodd" sketch:type="MSPage">
        <g id="Edit-Profile" sketch:type="MSArtboardGroup" transform="translate(-51.000000, -217.000000)" fill="#D5D5D5">
            <g id="Dashboard" sketch:type="MSLayerGroup" transform="translate(47.000000, 203.000000)">
                <path d="M14.5866562,32.4202142 C15.5271681,32.4202142 16.2896036,31.6577787 16.2896036,30.7172668 C16.2896036,29.7767549 15.5271681,29.0143194 14.5866562,29.0143194 C13.6461443,29.0143194 12.8837088,29.7767549 12.8837088,30.7172668 C12.8837088,31.6577787 13.6461443,32.4202142 14.5866562,32.4202142 Z M17.7674781,34.1654514 C17.2656763,33.6860717 15.9873304,33.2645922 14.5202413,33.2645922 C13.0531521,33.2645922 11.8298682,33.6857879 11.3289179,34.1654514 C11.2131175,34.2764268 11.1810453,34.4294083 11.1810453,34.5892015 L11.1810453,35.5422844 L14.4983868,35.5422844 L17.992551,35.5422844 L17.992551,34.5892015 C17.992551,34.4294083 17.8827109,34.276143 17.7674781,34.1654514 Z M7.50943391,14 C4.99283929,14 4,15.4283937 4,16.2717094 L4,42.0702493 C4,44.2336169 5.34476078,45 7.50943396,45 L36.2324798,45 C38.3958474,45 40.5566038,44.2336169 40.5566038,42.0702493 C40.5566038,42.0702493 40.5566038,14.6563172 40.5566038,16.2717094 C40.5566038,16.2717094 39.4737237,14 37.2296959,14 C37.2296959,14 7.50943391,14 7.50943391,14 Z M20.9727089,39.777628 L7.91677897,39.777628 L7.91677897,25.4161051 L20.9727089,25.4161051 L20.9727089,39.777628 L20.9727089,39.777628 Z M36.6398248,39.777628 L23.5838949,39.777628 L23.5838949,37.1664421 L36.6398248,37.1664421 L36.6398248,39.777628 L36.6398248,39.777628 Z M36.6398248,35.8608491 L23.5838949,35.8608491 L23.5838949,33.2496631 L36.6398248,33.2496631 L36.6398248,35.8608491 L36.6398248,35.8608491 Z M36.6398248,31.9440701 L23.5838949,31.9440701 L23.5838949,29.3328841 L36.6398248,29.3328841 L36.6398248,31.9440701 L36.6398248,31.9440701 Z M36.6398248,28.0272911 L23.5838949,28.0272911 L23.5838949,25.4161051 L36.6398248,25.4161051 L36.6398248,28.0272911 L36.6398248,28.0272911 Z M7.91677897,22.8049191 L7.91677897,18.8881402 L36.6398248,18.8881402 L36.6398248,22.8049191 L7.91677897,22.8049191 Z" id="Shape" sketch:type="MSShapeGroup"></path>
            </g>
        </g>
    </g>
</svg>