<?xml version="1.0" encoding="UTF-8" standalone="no"?>
<svg width="27px" height="32px" viewBox="0 0 27 32" version="1.1" xmlns="http://www.w3.org/2000/svg" xmlns:xlink="http://www.w3.org/1999/xlink" xmlns:sketch="http://www.bohemiancoding.com/sketch/ns">
    <!-- Generator: Sketch 3.4.2 (15855) - http://www.bohemiancoding.com/sketch -->
    <title>Shape</title>
    <desc>Created with Sketch.</desc>
    <defs></defs>
    <g id="Page-1" stroke="none" stroke-width="1" fill="none" fill-rule="evenodd" sketch:type="MSPage">
        <g id="Change-Password" sketch:type="MSArtboardGroup" transform="translate(-55.000000, -217.000000)" fill="#D5D5D5">
            <g id="Dashboard" sketch:type="MSLayerGroup" transform="translate(43.000000, 203.000000)">
                <path d="M36,46 L14.6666667,46 C13.3333333,46 12,44.6666667 12,43.3333333 L12,30 C12,28.6666667 13.3333333,27.3333333 14.6666667,27.3333333 L16,27.3333333 L16,23.3333333 C16,18 20,14 25.3333333,14 C30.6666667,14 34.6666667,18 34.6666667,23.3333333 L34.6666667,27.3333333 L36,27.3333333 C37.3333333,27.3333333 38.6666667,28.6666667 38.6666667,30 L38.6666667,43.3333333 C38.6666667,44.6666667 37.3333333,46 36,46 L36,46 Z M30.6666667,23.3333333 C30.6666667,20.6666667 28,18 25.3333333,18 C22.6666667,18 20,20.6666667 20,23.3333333 L20,27.3333333 L30.6666667,27.3333333 L30.6666667,23.3333333 L30.6666667,23.3333333 Z" id="Shape" sketch:type="MSShapeGroup"></path>
            </g>
        </g>
    </g>
</svg>