<?xml version="1.0" encoding="UTF-8" standalone="no"?>
<svg width="32px" height="34px" viewBox="0 0 32 34" version="1.1" xmlns="http://www.w3.org/2000/svg" xmlns:xlink="http://www.w3.org/1999/xlink" xmlns:sketch="http://www.bohemiancoding.com/sketch/ns">
    <!-- Generator: Sketch 3.4.2 (15855) - http://www.bohemiancoding.com/sketch -->
    <title>Fill 53</title>
    <desc>Created with Sketch.</desc>
    <defs></defs>
    <g id="Page-1" stroke="none" stroke-width="1" fill="none" fill-rule="evenodd" sketch:type="MSPage">
        <g id="Profile" sketch:type="MSArtboardGroup" transform="translate(-659.000000, -838.000000)" fill="#D1D1D1">
            <g id="Dashboard" sketch:type="MSLayerGroup" transform="translate(0.000000, 161.000000)">
                <g id="Card" transform="translate(0.000000, 162.000000)" sketch:type="MSShapeGroup">
                    <g id="Oval-84-+-Fill-53-+-message-4" transform="translate(525.000000, 514.000000)">
                        <path d="M157,26 L144.505267,19.1940429 C144.636263,18.7323697 144.494457,18.4989049 144.494457,18.0074463 C144.494457,17.5010951 144.130997,17.4616732 144,17 L156.494733,10.2089356 C157.451451,11.325887 159.154317,11.6035918 160.74394,11.6035918 C163.645003,11.6035918 166,9.22076216 166,6.31668857 C166,3.38282961 163.645003,1 160.74394,1 C157.845821,1 155.490824,3.38282961 155.490824,6.31668857 C155.490824,6.80814717 154.88225,6.53832676 155,7 L142.502323,13.7910644 C141.547077,12.674113 140.830965,12.7056505 139.239869,12.7056505 C136.340279,12.7056505 134,15.0735874 134,18.0074463 C134,20.9264126 136.340279,23.2943495 139.239869,23.2943495 C140.830965,23.2943495 142.044754,23.1169514 143,22 L155.497677,28.7910644 C155.379927,29.2527376 155.490824,29.1918528 155.490824,29.6833114 C155.490824,32.6171704 157.845821,35 160.74394,35 C163.645003,35 166,32.6171704 166,29.6833114 C166,26.7792378 163.645003,24.3964082 160.74394,24.3964082 C159.154317,24.3964082 157.956718,24.8681559 157,26 Z" id="Fill-53"></path>
                    </g>
                </g>
            </g>
        </g>
    </g>
</svg>