<?xml version="1.0" encoding="UTF-8" standalone="no"?>
<svg width="55px" height="97px" viewBox="0 0 55 97" version="1.1" xmlns="http://www.w3.org/2000/svg" xmlns:xlink="http://www.w3.org/1999/xlink" xmlns:sketch="http://www.bohemiancoding.com/sketch/ns">
    <!-- Generator: Sketch 3.4.2 (15855) - http://www.bohemiancoding.com/sketch -->
    <title>Oval 2 + Oval 42 + Fill 1</title>
    <desc>Created with Sketch.</desc>
    <defs></defs>
    <g id="Page-1" stroke="none" stroke-width="1" fill="none" fill-rule="evenodd" sketch:type="MSPage">
        <g id="Start-Map-Registered-Or-Unregistered" sketch:type="MSArtboardGroup" transform="translate(-350.000000, -468.000000)">
            <g id="Dashboard" sketch:type="MSLayerGroup" transform="translate(0.000000, 51.000000)">
                <g id="Pins" transform="translate(137.000000, 381.000000)" sketch:type="MSShapeGroup">
                    <g id="Oval-2-+-Oval-42-+-Fill-1" transform="translate(213.000000, 36.000000)">
                        <ellipse id="Oval-2" opacity="0.2" fill="#000000" cx="27.5" cy="92.5" rx="8.5" ry="4.5"></ellipse>
                        <g id="Oval-42-+-Fill-1">
                            <circle id="Oval-42" fill="#3CADD6" cx="27.84375" cy="26.6953125" r="12"></circle>
                            <path d="M51.5763945,13.7638327 C48.3252018,8.11605938 43.1983211,3.76518219 36.3624802,1.46423752 C35.1537035,1.04588394 33.9449267,0.71120108 32.694468,0.502024291 C31.3606454,0.251012146 29.9017769,0.0836707152 28.4012265,0 L26.6089023,0 C25.1083519,0.0836707152 23.6494834,0.251012146 22.3156608,0.502024291 C21.0235201,0.71120108 19.8147434,1.04588394 18.6476486,1.46423752 C11.8118077,3.76518219 6.64324503,8.11605938 3.3920524,13.7638327 C1.18290869,17.6545209 -0.317641754,22.5074224 0.0574958573,28.4480432 C0.182541728,31.1673414 0.93281695,33.6356275 1.76645609,35.8529015 C2.64177718,38.0283401 3.64214414,39.9946019 4.80923893,41.877193 C9.35257222,49.2820513 15.4798199,55.8502024 18.9394223,64.3009447 C20.7317464,68.5681511 22.2739788,73.0445344 23.6078014,77.8137652 C24.8999421,82.5411606 26.1087189,87.5195682 26.6089023,93 L28.4012265,93 C28.90141,87.5195682 30.0685048,82.5411606 31.3606454,77.8137652 C32.694468,73.0445344 34.2783824,68.5681511 36.0290246,64.3009447 C39.5303089,55.8502024 45.6575566,49.2820513 50.1592079,41.877193 C51.3679847,39.9946019 52.3683516,38.0283401 53.2436727,35.8529015 C54.0773119,33.6356275 54.7859051,31.1673414 54.952633,28.4480432 C55.2860886,22.5074224 53.8272201,17.6545209 51.5763945,13.7638327 L51.5763945,13.7638327 Z M27.4791252,37 C21.6759443,37 17,32.5051546 17,26.9793814 C17,21.4536082 21.6759443,17 27.4791252,17 C33.2823062,17 38,21.4536082 38,26.9793814 C38,32.5051546 33.2823062,37 27.4791252,37 L27.4791252,37 Z" id="Fill-1" fill="#5F5F5F"></path>
                        </g>
                    </g>
                </g>
            </g>
        </g>
    </g>
</svg>