<?xml version="1.0" encoding="UTF-8" standalone="no"?>
<svg width="30px" height="48px" viewBox="0 0 30 48" version="1.1" xmlns="http://www.w3.org/2000/svg" xmlns:xlink="http://www.w3.org/1999/xlink" xmlns:sketch="http://www.bohemiancoding.com/sketch/ns">
    <!-- Generator: Sketch 3.4.2 (15855) - http://www.bohemiancoding.com/sketch -->
    <title>Imported Layers 5</title>
    <desc>Created with Sketch.</desc>
    <defs></defs>
    <g id="Page-1" stroke="none" stroke-width="1" fill="none" fill-rule="evenodd" sketch:type="MSPage">
        <g id="Start-List-Registered-Or-Unregistered" sketch:type="MSArtboardGroup" transform="translate(-43.000000, -217.000000)" fill="#D5D5D5">
            <g id="Dashboard" sketch:type="MSLayerGroup" transform="translate(0.000000, 51.000000)">
                <g id="List-Location" transform="translate(0.000000, 110.000000)" sketch:type="MSShapeGroup">
                    <g id="Locations" transform="translate(43.000000, 34.000000)">
                        <path d="M19.5869456,22.751564 C18.9674799,22.5368315 18.3480141,22.3650454 17.7071876,22.2576791 C17.0236392,22.1288396 16.2760082,22.0429465 15.5070163,22 L14.5884981,22 C13.8195062,22.0429465 13.0718752,22.1288396 12.3883269,22.2576791 C11.7261394,22.3650454 11.1066737,22.5368315 10.5085688,22.751564 C7.00538348,23.9325933 4.35663357,26.1658121 2.69048443,29.064702 C1.55835746,31.0617151 0.789365547,33.552613 0.981613524,36.6018157 C1.04569618,37.9975775 1.43019214,39.2644998 1.85740987,40.4025825 C2.30598848,41.5191919 2.81864975,42.5284351 3.41675457,43.4947317 C5.74509119,47.2954984 8.88514148,50.6668 10.6580951,55.0043982 C11.5766132,57.1946706 12.366966,59.4923092 13.0505143,61.9402607 C13.7127018,64.3667389 14.3321675,66.9220567 14.5884981,69.7350535 L15.5070163,69.7350535 C15.7633469,66.9220567 16.3614517,64.3667389 17.0236392,61.9402607 C17.7071876,59.4923092 18.5189012,57.1946706 19.4160585,55.0043982 C21.2103729,50.6668 24.3504232,47.2954984 26.657399,43.4947317 C27.2768647,42.5284351 27.7895259,41.5191919 28.2381045,40.4025825 C28.6653223,39.2644998 29.0284573,37.9975775 29.1139009,36.6018157 C29.284788,33.552613 28.537157,31.0617151 27.3836691,29.064702 C25.7175199,26.1658121 23.0901309,23.9325933 19.5869456,22.751564 Z M15.1204224,40.2857143 C17.6977513,40.2857143 19.7870891,38.239016 19.7870891,35.7142857 C19.7870891,33.1895554 17.6977513,31.1428571 15.1204224,31.1428571 C12.5430936,31.1428571 10.4537558,33.1895554 10.4537558,35.7142857 C10.4537558,38.239016 12.5430936,40.2857143 15.1204224,40.2857143 Z" id="Imported-Layers-5"></path>
                    </g>
                </g>
            </g>
        </g>
    </g>
</svg>