<?xml version="1.0" encoding="UTF-8" standalone="no"?>
<svg width="34px" height="32px" viewBox="0 0 34 32" version="1.1" xmlns="http://www.w3.org/2000/svg" xmlns:xlink="http://www.w3.org/1999/xlink" xmlns:sketch="http://www.bohemiancoding.com/sketch/ns">
    <!-- Generator: Sketch 3.4.2 (15855) - http://www.bohemiancoding.com/sketch -->
    <title>Fill 35</title>
    <desc>Created with Sketch.</desc>
    <defs></defs>
    <g id="Page-1" stroke="none" stroke-width="1" fill="none" fill-rule="evenodd" sketch:type="MSPage">
        <g id="Location-Detail-Registered-Or-Unregistered" sketch:type="MSArtboardGroup" transform="translate(-41.000000, -743.000000)" fill="#D5D5D5">
            <g id="Dashboard" sketch:type="MSLayerGroup" transform="translate(0.000000, 51.000000)">
                <g id="Location-details" sketch:type="MSShapeGroup">
                    <path d="M60.5353601,710.453381 C57.2642714,713.626552 53.4880881,716.650397 51.9920461,715.199138 C49.8538123,713.124911 48.5309456,711.32367 43.8119191,715.000815 C39.0928926,718.677961 42.7271684,721.137168 44.7884353,723.134399 C47.1936476,725.455947 56.1001486,723.25806 64.9248725,714.711497 C73.7351651,706.164933 76.000875,697.511042 73.6076888,695.191828 C71.5319906,693.178264 68.9993021,689.66911 65.2086875,694.246876 C61.4156678,698.824642 63.2893281,700.105576 65.4275618,702.182137 C66.9236039,703.631063 63.7920175,707.294209 60.5353601,710.453381" id="Fill-35" transform="translate(58.000000, 708.000000) scale(-1, 1) translate(-58.000000, -708.000000) "></path>
                </g>
            </g>
        </g>
    </g>
</svg>