<?xml version="1.0" encoding="UTF-8" standalone="no"?>
<svg width="48px" height="32px" viewBox="0 0 48 32" version="1.1" xmlns="http://www.w3.org/2000/svg" xmlns:xlink="http://www.w3.org/1999/xlink" xmlns:sketch="http://www.bohemiancoding.com/sketch/ns">
    <!-- Generator: Sketch 3.4.2 (15855) - http://www.bohemiancoding.com/sketch -->
    <title>Shape</title>
    <desc>Created with Sketch.</desc>
    <defs></defs>
    <g id="Page-1" stroke="none" stroke-width="1" fill="none" fill-rule="evenodd" sketch:type="MSPage">
        <g id="Edit-Profile" sketch:type="MSArtboardGroup" transform="translate(-52.000000, -693.000000)" fill="#D5D5D5">
            <g id="Dashboard" sketch:type="MSLayerGroup" transform="translate(47.000000, 203.000000)">
                <path d="M29,522 C11,522 5,506 5,506 C5,506 13,490 29,490 C45,490 53,506 53,506 C53,506 45,522 29,522 L29,522 Z M29,496 C23,496 19,500 19,506 C19,512 23,516 29,516 C35,516 39,512 39,506 C39,500 35,496 29,496 L29,496 Z M29,512 C25,512 23,510 23,506 C23,502 25,500 29,500 C33,500 35,502 35,506 C35,510 33,512 29,512 L29,512 Z" id="Shape" sketch:type="MSShapeGroup"></path>
            </g>
        </g>
    </g>
</svg>