<?xml version="1.0" encoding="UTF-8" standalone="no"?>
<svg width="99px" height="99px" viewBox="0 0 99 99" version="1.1" xmlns="http://www.w3.org/2000/svg" xmlns:xlink="http://www.w3.org/1999/xlink" xmlns:sketch="http://www.bohemiancoding.com/sketch/ns">
    <!-- Generator: Sketch 3.4.2 (15855) - http://www.bohemiancoding.com/sketch -->
    <title>Rectangle 42 + Oval 82</title>
    <desc>Created with Sketch.</desc>
    <defs></defs>
    <g id="Page-1" stroke="none" stroke-width="1" fill="none" fill-rule="evenodd" sketch:type="MSPage">
        <g id="Start-Map-Registered-Or-Unregistered" sketch:type="MSArtboardGroup" transform="translate(-446.000000, -1091.000000)">
            <g id="Menu" sketch:type="MSLayerGroup" transform="translate(-4.000000, 1093.000000)">
                <g id="Rectangle-42-+-Oval-82" transform="translate(454.000000, 0.000000)" sketch:type="MSShapeGroup">
                    <rect id="Rectangle-42" fill="#FBFBFB" x="0" y="0" width="91" height="91" rx="6"></rect>
                    <path d="M59.8564736,43.07144 C60.0297866,42.2113751 60.1299057,41.3248061 60.1500529,40.4185109 C60.1525747,40.3178188 60.1538462,40.2183616 60.1538462,40.1201816 C60.1538462,40.1186367 60.15383,40.1170925 60.1537977,40.115549 C60.15383,40.1026775 60.1538462,40.0898022 60.1538462,40.0769231 C60.1538462,31.7501684 53.4036778,25 45.0769231,25 C36.7501684,25 30,31.7501684 30,40.0769231 C30,40.1198008 30.000179,40.1626367 30.0005363,40.2054301 C30.0001791,40.212888 30,40.2203692 30,40.2278738 C30,48.6923075 39.6923077,67 45.0769231,67 C49.9028638,67 58.1889891,52.2942154 59.8564736,43.07144 Z M45.0769231,46.5384615 C48.6455322,46.5384615 51.5384615,43.6455322 51.5384615,40.0769231 C51.5384615,36.5083139 48.6455322,33.6153846 45.0769231,33.6153846 C41.5083139,33.6153846 38.6153846,36.5083139 38.6153846,40.0769231 C38.6153846,43.6455322 41.5083139,46.5384615 45.0769231,46.5384615 Z" id="Oval-82" fill="#5F5F5F"></path>
                </g>
            </g>
        </g>
    </g>
</svg>